<svg width="22" height="34" viewBox="0 0 22 34" fill="none" xmlns="http://www.w3.org/2000/svg">
<path d="M0 3C0 1.34314 1.34315 0 3 0H21.6667V33.3333H3C1.34314 33.3333 0 31.9902 0 30.3333V3Z" fill="#333333"/>
<path d="M3 0.28238H21.3843V33.051H3C1.4991 33.051 0.28238 31.8342 0.28238 30.3333V3C0.28238 1.4991 1.4991 0.28238 3 0.28238Z" stroke="black" stroke-opacity="0.1" stroke-width="0.564761"/>
<path fill-rule="evenodd" clip-rule="evenodd" d="M8.25954 0H5.01115V5.00888H0V8.26262H7.20833L5.01115 9.061V21.092C5.01115 21.4274 5.19964 21.6036 5.48351 21.6307H12.8819C15.4094 21.5483 17.4331 19.479 17.4331 16.933C17.4331 15.2636 16.5625 13.8001 15.2503 12.9655C16.0715 12.2393 16.6904 11.0569 16.6904 9.88589C16.6904 6.77378 14.4813 5.00888 11.3281 5.00888H8.25954V0ZM11.7429 8.17362H8.21123V17.7694C8.22501 18.1067 8.42357 18.2818 8.73006 18.288L12.8338 18.2845C13.7639 18.2066 14.4951 17.4308 14.4951 16.4816C14.4951 15.4766 13.6807 14.6622 12.6761 14.6622H11.1568C10.8458 14.6622 10.6434 14.491 10.6247 14.1654L10.6236 12.1043C10.631 11.8056 10.8049 11.6128 11.1316 11.598L11.7429 11.5669C12.6669 11.5669 13.4178 10.8148 13.4178 9.88836C13.4178 8.96357 12.6669 8.17362 11.7429 8.17362Z" fill="#FFFFFE"/>
<path d="M18.7562 23.5983C18.8366 23.3612 19.0087 23.3329 19.157 23.3329C19.2124 23.3329 19.2691 23.3336 19.3377 23.3344C19.4432 23.3357 19.577 23.3373 19.7779 23.3373C20.1028 23.3373 19.976 23.5939 19.976 23.5939C19.976 23.5939 18.7724 25.7674 17.8029 27.5242L17.8073 29.7644C17.8073 29.9865 17.6263 29.9952 17.5249 29.9952H16.9598C16.8049 29.9952 16.7285 29.903 16.7285 29.7578C16.7285 29.6124 16.7455 27.5242 16.7455 27.5242C15.7764 25.7674 14.572 23.5939 14.572 23.5939C14.572 23.5939 14.445 23.3373 14.7702 23.3373C14.9709 23.3373 15.1048 23.3357 15.2103 23.3344C15.2791 23.3336 15.3358 23.3329 15.3912 23.3329C15.5396 23.3329 15.7111 23.3612 15.7917 23.5983L16.0875 24.1393L17.2738 26.2766L18.4605 24.1393L18.7562 23.5983Z" fill="#FFFFFE"/>
<path fill-rule="evenodd" clip-rule="evenodd" d="M7.61398 23.3434H5.23672C5.0298 23.3434 5.00035 23.5169 5.00035 23.6248L5.00113 29.7536C5.00113 29.9978 5.21529 29.9956 5.25159 29.9953L5.25452 29.9952H5.86178C5.96147 29.9952 6.07202 29.913 6.07202 29.7966L6.07075 27.5995H7.61398C8.76803 27.5995 9.70421 26.6472 9.70421 25.4712C9.70421 24.2959 8.76803 23.3434 7.61398 23.3434ZM6.07075 26.5393H7.59598C8.16694 26.5393 8.63038 26.0681 8.63038 25.4867C8.63038 24.9046 8.16694 24.4334 7.59598 24.4334L6.07075 24.4347V26.5393Z" fill="#FFFFFE"/>
<path fill-rule="evenodd" clip-rule="evenodd" d="M13.2053 23.6227C13.1242 23.4543 13.0656 23.3447 12.7722 23.3447H12.0011C11.708 23.3447 11.6499 23.4543 11.5681 23.6227C11.4943 23.7886 9.33743 29.7385 9.33743 29.7385C9.33743 29.7385 9.21063 29.9952 9.53495 29.9952C9.73565 29.9952 9.84117 29.9968 9.92447 29.998C9.97879 29.9989 10.0237 29.9995 10.0793 29.9995C10.2275 29.9995 10.3994 29.971 10.4794 29.7342C10.5505 29.5272 10.8733 28.6144 10.8733 28.6144H13.9005C13.9005 28.6144 14.2236 29.5272 14.2938 29.7342C14.3747 29.971 14.5461 29.9995 14.694 29.9995C14.7496 29.9995 14.7946 29.9989 14.8489 29.998C14.9323 29.9968 15.0378 29.9952 15.2382 29.9952C15.5634 29.9952 15.4365 29.7385 15.4365 29.7385C15.4365 29.7385 13.2794 23.7886 13.2053 23.6227ZM12.3865 24.4334L11.314 27.527H13.5241L12.3865 24.4334Z" fill="#FFFFFE"/>
</svg>
