<svg width="318" height="214" viewBox="0 0 318 214" fill="none" xmlns="http://www.w3.org/2000/svg">
<path d="M7.82084 -100.125C-11.1909 -140.226 6.07134 -188.138 46.2898 -206.898L322.459 -335.719C362.885 -354.575 410.924 -336.727 429.231 -296.049L576.059 30.2193C596.737 76.1679 570.301 129.561 521.223 140.972L224.539 209.95C187.889 218.471 150.255 200.3 134.135 166.3L7.82084 -100.125Z" fill="#F4F5F7"/>
<path d="M47.1587 -191.012C42.2958 -235.123 74.2682 -274.763 118.409 -279.349L421.514 -310.843C465.883 -315.453 505.451 -282.885 509.458 -238.458L541.598 117.88C546.124 168.063 503.69 209.885 453.578 204.63L150.643 172.863C113.22 168.939 83.5907 139.466 79.4676 102.065L47.1587 -191.012Z" fill="#CF3C3C"/>
</svg>
